{
  "title": "47 Ronin (2013) DVDRip XviD-MAX",
  "uid": 9784272,
  "size": 1698897832,
  "categoryP": "video",
  "categoryS": "movies",
  "magnet": "?xt=urn:btih:bb2ef671ec8dfe0e59805d0a216df0f250eaad41&amp;dn=47+Ronin+%282013%29+DVDRip+XviD-MAX&amp;tr=udp%3A%2F%2Ftracker.openbittorrent.com%3A80&amp;tr=udp%3A%2F%2Fopen.demonii.com%3A1337&amp;tr=udp%3A%2F%2Ftracker.coppersurfer.tk%3A6969&amp;tr=udp%3A%2F%2Fexodus.desync.com%3A6969",
  "seeders": 86,
  "leechers": 14,
  "uploader": "extremezone",
  "files": -1,
  "time": 1395143837,
  "description": " &lt;a href=&quot;http://imageshack.com/a/img812/6771/wmou.jpg&quot; rel=&quot;nofollow&quot; target=&quot;_NEW&quot;&gt;http://imageshack.com/a/img812/6771/wmou.jpg&lt;/a&gt;\n\nScreens:\n &lt;a href=&quot;\nhttp://imageshack.com/a/img706/3550/n1gs.jpg&quot; rel=&quot;nofollow&quot; target=&quot;_NEW&quot;&gt;\nhttp://imageshack.com/a/img706/3550/n1gs.jpg&lt;/a&gt; &lt;a href=&quot;\nhttp://imageshack.com/a/img59/9614/ao45.jpg&quot; rel=&quot;nofollow&quot; target=&quot;_NEW&quot;&gt;\nhttp://imageshack.com/a/img59/9614/ao45.jpg&lt;/a&gt; &lt;a href=&quot;\nhttp://imageshack.com/a/img853/2079/l3qr.jpg&quot; rel=&quot;nofollow&quot; target=&quot;_NEW&quot;&gt;\nhttp://imageshack.com/a/img853/2079/l3qr.jpg&lt;/a&gt; &lt;a href=&quot;\nhttp://imageshack.com/a/img823/8219/yp55.jpg&quot; rel=&quot;nofollow&quot; target=&quot;_NEW&quot;&gt;\nhttp://imageshack.com/a/img823/8219/yp55.jpg&lt;/a&gt;\n\nScreenCaps:\n &lt;a href=&quot;\nhttp://imageshack.com/a/img543/843/81ix.jpg&quot; rel=&quot;nofollow&quot; target=&quot;_NEW&quot;&gt;\nhttp://imageshack.com/a/img543/843/81ix.jpg&lt;/a&gt;\n\n47 Ronin (2013) DVDRip XviD-MAX\nFormat                                   : AVI\nFormat/Info                              : Audio Video Interleave\nFormat profile                           : OpenDML\nFormat settings                          : rec\nFile size                                : 1.58 GiB\nDuration                                 : 1h 58mn\nOverall bit rate                         : 1 905 Kbps\nWriting application                      : VirtualDubMod 1.5.10.2 (build 2542/release)\nWriting library                          : VirtualDubMod build 2542/release\nOriginal source form                     : MAX TORRENTZ\nCopyright                                : SIGISMUNT\n\nVideo\nID                                       : 0\nFormat                                   : MPEG-4 Visual\nFormat profile                           : Advanced Simple@L5\nFormat settings, BVOP                    : 2\nFormat settings, QPel                    : No\nFormat settings, GMC                     : No warppoints\nFormat settings, Matrix                  : Custom\nCodec ID                                 : XVID\nCodec ID/Hint                            : XviD\nDuration                                 : 1h 58mn\nBit rate                                 : 1 515 Kbps\nWidth                                    : 720 pixels\nHeight                                   : 304 pixels\nDisplay aspect ratio                     : 2.35:1\nFrame rate                               : 23.976 fps\nColor space                              : YUV\nChroma subsampling                       : 4:2:0\nBit depth                                : 8 bits\nScan type                                : Progressive\nCompression mode                         : Lossy\nBits/(Pixel*Frame)                       : 0.289\nStream size                              : 1.25 GiB (80%)\nWriting library                          : XviD 1.2.1 (UTC 2008-12-04)\n\nAudio\nID                                       : 1\nFormat                                   : AC-3\nFormat/Info                              : Audio Coding 3\nCodec ID                                 : 2000\nDuration                                 : 1h 58mn\nBit rate mode                            : Constant\nBit rate                                 : 384 Kbps\nChannel(s)                               : 6 channels\nSampling rate                            : 48.0 KHz\nCompression mode                         : Lossy\nStream size                              : 326 MiB (20%)\nAlignment                                : Aligned on interleaves\n\nSource: WEBDL DVD (perfect a/v/sync quality,sample included)\nThis torrent is not seedbox supported,please seed it to the MAX\n\nNote: If you have something to offer as early releases,seedboxes,\ncontact us on &lt;a href=&quot; http://torentz.3xforum.ro&quot; rel=&quot;nofollow&quot; target=&quot;_NEW&quot;&gt; http://torentz.3xforum.ro&lt;/a&gt; or &lt;a href=&quot; http://torentz.tk&quot; rel=&quot;nofollow&quot; target=&quot;_NEW&quot;&gt; http://torentz.tk&lt;/a&gt;\n\n47 Ronin (2013) DVDRip XviD-MAX Torrent Free Download\n\nHow To Get Your MAXSPEED (uTorrent)\n\nTorrent Client - Preferences - Bandwidth - Number of connections - Set aprox. 500 for each\nTorrent Client - Preferences - BiTorrent - Protocol Encryption - Forced\nBandwidth Allocation - High (Set download/upload limit - Unlimited)\nStop Other Active Torrents - Start downloading and wait for connections.\nEnjoy and Seed for at least 1:1 ratio. Don't forget to say thanks/leave reviews.\nIf screens/Caps image host is dead googlesearch &quot;release name&quot;+&quot;screens&quot; or &quot;sample&quot;.\nGreets to all actual/future p2p/scene QUALITY groups and affiliate websites.\nDon't trust IMDb robot or bad ratings,always watch some trailers first.\nIgnore stupid comments/fake/mislabeled/no-DVDrips/CAM/TS/RAR uploads.\nPlease spread this release/torrent to your friends/forums/etc.\nIf you need translation subs visit some subtitles sites.\nReport if you see online streaming or other spam links.\nRecommended movie player VLC PLAYER.",
  "parsed": {
    "xt": "urn:btih:bb2ef671ec8dfe0e59805d0a216df0f250eaad41",
    "dn": "47 Ronin (2013) DVDRip XviD-MAX",
    "tr": [
      "udp://exodus.desync.com:6969",
      "udp://open.demonii.com:1337",
      "udp://tracker.coppersurfer.tk:6969",
      "udp://tracker.openbittorrent.com:80"
    ],
    "infoHash": "bb2ef671ec8dfe0e59805d0a216df0f250eaad41",
    "infoHashBuffer": {
      "type": "Buffer",
      "data": [
        187,
        46,
        246,
        113,
        236,
        141,
        254,
        14,
        89,
        128,
        93,
        10,
        33,
        109,
        240,
        242,
        80,
        234,
        173,
        65
      ]
    },
    "name": "47 Ronin (2013) DVDRip XviD-MAX",
    "announce": [
      "udp://exodus.desync.com:6969",
      "udp://open.demonii.com:1337",
      "udp://tracker.coppersurfer.tk:6969",
      "udp://tracker.openbittorrent.com:80"
    ],
    "urlList": []
  },
  "previous": 100,
  "peers": 15,
  "last_updated": "2016-12-25T12:20:00.352Z"
}